<svg width="25" height="24" viewBox="0 0 25 24" fill="none" xmlns="http://www.w3.org/2000/svg">
<path d="M19.21 7.21C19.117 7.11627 19.0064 7.04188 18.8846 6.99111C18.7627 6.94034 18.632 6.9142 18.5 6.9142C18.368 6.9142 18.2373 6.94034 18.1154 6.99111C17.9936 7.04188 17.883 7.11627 17.79 7.21L10.34 14.67L7.21001 11.53C7.11349 11.4368 6.99955 11.3634 6.87469 11.3142C6.74984 11.265 6.61651 11.2409 6.48233 11.2432C6.34815 11.2456 6.21574 11.2743 6.09266 11.3278C5.96959 11.3813 5.85825 11.4585 5.76501 11.555C5.67177 11.6515 5.59846 11.7655 5.54925 11.8903C5.50005 12.0152 5.47592 12.1485 5.47824 12.2827C5.48056 12.4169 5.50929 12.5493 5.56278 12.6723C5.61628 12.7954 5.69349 12.9068 5.79001 13L9.63001 16.84C9.72297 16.9337 9.83358 17.0081 9.95543 17.0589C10.0773 17.1097 10.208 17.1358 10.34 17.1358C10.472 17.1358 10.6027 17.1097 10.7246 17.0589C10.8464 17.0081 10.957 16.9337 11.05 16.84L19.21 8.68C19.3115 8.58636 19.3925 8.4727 19.4479 8.3462C19.5033 8.21971 19.5319 8.0831 19.5319 7.945C19.5319 7.8069 19.5033 7.67029 19.4479 7.54379C19.3925 7.41729 19.3115 7.30364 19.21 7.21V7.21Z" fill="#00936D"/>
</svg>
